<svg xmlns="http://www.w3.org/2000/svg" width="18" height="14.6" viewBox="0 0 18 14.6">
  <path id="travel-card" d="M3.7,4A1.7,1.7,0,0,0,2,5.7V15.9a1.7,1.7,0,0,0,1.7,1.7H17.3A1.7,1.7,0,0,0,19,15.9V5.7A1.7,1.7,0,0,0,17.3,4Zm0,1.7H17.3l0,10.2H3.7ZM7.1,7.4a.85.85,0,0,0-.85.85V9.1H5.4a.85.85,0,0,0-.85.85v3.4a.85.85,0,0,0,.85.85h5.1a.85.85,0,0,0,.85-.85V9.95a.85.85,0,0,0-.85-.85H9.65V8.25A.85.85,0,0,0,8.8,7.4Zm0,.85H8.8V9.1H7.1Zm5.1,4.25v1.7h1.7V12.5Zm2.55,0v1.7h1.7V12.5Z" transform="translate(-1.5 -3.5)" fill="#fff" stroke="rgba(0,0,0,0)" stroke-width="1"/>
</svg>
