<svg xmlns="http://www.w3.org/2000/svg" width="18" height="18" viewBox="0 0 18 18">
  <g id="Group_47490" data-name="Group 47490" transform="translate(-304 -98)">
    <path id="Path_49503" data-name="Path 49503" d="M311.357,98h3.286c1.084,0,1.958,0,2.666.058a5.128,5.128,0,0,1,1.961.487,5,5,0,0,1,2.185,2.185,5.113,5.113,0,0,1,.487,1.961c.058.708.058,1.582.058,2.666v3.286c0,1.084,0,1.958-.058,2.666a5.113,5.113,0,0,1-.487,1.961,4.994,4.994,0,0,1-2.185,2.185,5.113,5.113,0,0,1-1.961.487c-.708.058-1.582.058-2.666.058h-3.286c-1.084,0-1.958,0-2.666-.058a5.113,5.113,0,0,1-1.961-.487,4.994,4.994,0,0,1-2.185-2.185,5.113,5.113,0,0,1-.487-1.961c-.058-.708-.058-1.582-.058-2.666v-3.286c0-1.084,0-1.958.058-2.666a5.113,5.113,0,0,1,.487-1.961,5,5,0,0,1,2.185-2.185,5.128,5.128,0,0,1,1.961-.487C309.4,98,310.273,98,311.357,98Zm-2.5,2.051a3.2,3.2,0,0,0-1.216.276,3.009,3.009,0,0,0-1.311,1.311,3.2,3.2,0,0,0-.276,1.216c-.05.617-.051,1.409-.051,2.546v3.2c0,1.137,0,1.929.051,2.546a3.2,3.2,0,0,0,.276,1.216,3.009,3.009,0,0,0,1.311,1.311,3.2,3.2,0,0,0,1.216.276c.617.05,1.409.051,2.546.051h3.2c1.137,0,1.929,0,2.546-.051a3.2,3.2,0,0,0,1.216-.276,3.009,3.009,0,0,0,1.311-1.311,3.2,3.2,0,0,0,.276-1.216c.05-.617.051-1.409.051-2.546v-3.2c0-1.137,0-1.929-.051-2.546a3.2,3.2,0,0,0-.276-1.216,3.009,3.009,0,0,0-1.311-1.311,3.2,3.2,0,0,0-1.216-.276c-.617-.05-1.409-.051-2.546-.051h-3.2C310.263,100,309.471,100,308.854,100.051Z" fill="#7c90a6" fill-rule="evenodd"/>
    <path id="Path_49504" data-name="Path 49504" d="M308,103a1,1,0,0,1,1-1h8a1,1,0,0,1,0,2h-8A1,1,0,0,1,308,103Zm2,4a1,1,0,1,1-1-1A1,1,0,0,1,310,107Zm4,0a1,1,0,1,1-1-1A1,1,0,0,1,314,107Zm3,1a1,1,0,1,0-1-1A1,1,0,0,0,317,108Zm-7,3a1,1,0,1,1-1-1A1,1,0,0,1,310,111Zm3,1a1,1,0,1,0-1-1A1,1,0,0,0,313,112Zm4,0a1,1,0,1,0-1-1A1,1,0,0,0,317,112Z" fill="#7c90a6" fill-rule="evenodd"/>
  </g>
</svg>
