<svg xmlns="http://www.w3.org/2000/svg" width="13.296" height="13.296" viewBox="0 0 13.296 13.296">
  <path id="Path_49484" data-name="Path 49484" d="M139.1,13.211l-.014-.013c-.68-.647-2.04.5-2.04.5l-2.469,1.943-2.6-.461c.375-.543.488-1.083.238-1.333-.324-.324-1.133-.039-1.808.636a3.512,3.512,0,0,0-.317.363l-2-.354-1.329,1.132,5.418,2.486-3.474,4.2-2.163-.406-.548.547,3.845,3.844.547-.548-.406-2.163,4.2-3.473,2.486,5.418L137.8,24.2l-.353-2a3.477,3.477,0,0,0,.363-.317c.675-.675.959-1.484.635-1.808-.25-.25-.789-.137-1.333.238l-.46-2.6,1.943-2.468S139.746,13.892,139.1,13.211Z" transform="translate(-126 -13)" fill="#7c90a6"/>
</svg>
