<svg xmlns="http://www.w3.org/2000/svg" width="14.782" height="10.628" viewBox="0 0 14.782 10.628">
  <g id="Group_47492" data-name="Group 47492" transform="translate(-12.218 -13.876)">
    <path id="Path_49474" data-name="Path 49474" d="M12.218,23.2v.891a.433.433,0,0,0,.866,0v-.475H26.134v.475a.433.433,0,0,0,.866,0V21.833H12.218Z" fill="#fff"/>
    <path id="Path_49475" data-name="Path 49475" d="M25.407,18.329h-11.6a1.564,1.564,0,0,0-1.593,1.529V21H27V19.858A1.564,1.564,0,0,0,25.407,18.329Z" fill="#fff"/>
    <path id="Path_49476" data-name="Path 49476" d="M17.986,16.489a.713.713,0,0,0-.727.7V17.5h4.7v-.311a.713.713,0,0,0-.727-.7Z" fill="#fff"/>
    <path id="Path_49477" data-name="Path 49477" d="M16.393,17.186a1.564,1.564,0,0,1,1.593-1.529h3.247a1.564,1.564,0,0,1,1.593,1.529V17.5h2.319V15.4a1.564,1.564,0,0,0-1.593-1.529H15.666A1.564,1.564,0,0,0,14.074,15.4V17.5h2.319Z" fill="#fff"/>
  </g>
</svg>
