<svg xmlns="http://www.w3.org/2000/svg" width="15" height="16.668" viewBox="0 0 15 16.668">
  <g id="Group_47489" data-name="Group 47489" transform="translate(-34 -98.666)">
    <path id="Path_49501" data-name="Path 49501" d="M42,100.333a5.834,5.834,0,0,0-5.833,5.834,6.785,6.785,0,0,0,2.671,4.906l2.868,2.485a.449.449,0,0,0,.589,0l2.868-2.485a6.785,6.785,0,0,0,2.671-4.906A5.834,5.834,0,0,0,42,100.333Zm-7.5,5.834a7.5,7.5,0,1,1,15,0,8.424,8.424,0,0,1-3.246,6.165l-2.868,2.486a2.118,2.118,0,0,1-2.773,0l-2.868-2.486A8.424,8.424,0,0,1,34.5,106.167Z" transform="translate(-0.5)" fill="#7c90a6" fill-rule="evenodd"/>
    <path id="Path_49502" data-name="Path 49502" d="M43.667,106.167A1.667,1.667,0,1,1,42,104.5,1.666,1.666,0,0,1,43.667,106.167Z" fill="#7c90a6"/>
  </g>
</svg>
